<?xml version="1.0" encoding="UTF-8"?>
<!DOCTYPE svg PUBLIC "-//W3C//DTD SVG 1.1//EN" "http://www.w3.org/Graphics/SVG/1.1/DTD/svg11.dtd">
<svg xmlns="http://www.w3.org/2000/svg" version="1.1" width="2000px" height="779px" style="shape-rendering:geometricPrecision; text-rendering:geometricPrecision; image-rendering:optimizeQuality; fill-rule:evenodd; clip-rule:evenodd" xmlns:xlink="http://www.w3.org/1999/xlink">
<g><path style="opacity:0.997" fill="#fee700" d="M 418.5,-0.5 C 435.833,-0.5 453.167,-0.5 470.5,-0.5C 565.346,9.57617 642.013,51.9095 700.5,126.5C 674.088,126.721 648.088,130.554 622.5,138C 555.741,163.093 515.241,210.593 501,280.5C 491.561,336.647 502.561,388.313 534,435.5C 569.346,480.598 615.846,505.431 673.5,510C 682.494,510.5 691.494,510.666 700.5,510.5C 635.812,593.511 550.479,636.177 444.5,638.5C 344.396,636.56 261.896,597.894 197,522.5C 193.911,518.646 191.078,514.646 188.5,510.5C 262.197,509.251 318.364,477.584 357,415.5C 381.526,371.156 388.526,324.156 378,274.5C 364.929,223.119 336.095,183.285 291.5,155C 259.605,136.279 225.271,126.779 188.5,126.5C 246.716,51.3792 323.383,9.0459 418.5,-0.5 Z"/></g>
<g><path style="opacity:0.998" fill="#e1000e" d="M 188.5,126.5 C 225.271,126.779 259.605,136.279 291.5,155C 336.095,183.285 364.929,223.119 378,274.5C 388.526,324.156 381.526,371.156 357,415.5C 318.364,477.584 262.197,509.251 188.5,510.5C 108.006,506.688 50.1727,468.688 15,396.5C 7.2388,378.072 2.07213,359.072 -0.5,339.5C -0.5,325.833 -0.5,312.167 -0.5,298.5C 10.1286,224.386 49.462,171.886 117.5,141C 140.307,132.005 163.974,127.172 188.5,126.5 Z"/></g>
<g><path style="opacity:0.996" fill="#000000" d="M 700.5,126.5 C 760.699,127.936 809.699,151.769 847.5,198C 818.555,220.791 789.222,242.958 759.5,264.5C 739.362,239.271 713.029,228.771 680.5,233C 647.109,239.723 625.942,259.556 617,292.5C 611.293,318.603 614.293,343.603 626,367.5C 644.505,395.667 670.672,408.167 704.5,405C 727.731,402.233 746.064,391.4 759.5,372.5C 788.673,394.834 818.006,417.001 847.5,439C 814.197,481.162 770.53,504.828 716.5,510C 711.177,510.499 705.844,510.666 700.5,510.5C 691.494,510.666 682.494,510.5 673.5,510C 615.846,505.431 569.346,480.598 534,435.5C 502.561,388.313 491.561,336.647 501,280.5C 515.241,210.593 555.741,163.093 622.5,138C 648.088,130.554 674.088,126.721 700.5,126.5 Z"/></g>
<g><path style="opacity:0.99" fill="#000000" d="M 1424.5,126.5 C 1463.06,124.509 1499.06,133.009 1532.5,152C 1576.27,181.679 1599.77,223.179 1603,276.5C 1604.31,300.778 1602.31,324.778 1597,348.5C 1520.71,350.495 1444.21,351.162 1367.5,350.5C 1374.76,385.92 1396.42,405.42 1432.5,409C 1470.54,414.097 1503.04,403.263 1530,376.5C 1556.78,396.938 1583.28,417.771 1609.5,439C 1577.05,479.736 1534.72,503.069 1482.5,509C 1438.58,514.71 1396.25,509.044 1355.5,492C 1296.73,462.513 1262.56,415.013 1253,349.5C 1246.45,300.778 1254.79,254.778 1278,211.5C 1302.07,171.194 1336.9,145.027 1382.5,133C 1396.49,129.838 1410.49,127.672 1424.5,126.5 Z M 1428.5,217.5 C 1453.02,216.262 1472.19,225.595 1486,245.5C 1490.63,253.216 1493.13,261.549 1493.5,270.5C 1451.5,270.667 1409.5,270.5 1367.5,270C 1375.48,237.834 1395.82,220.334 1428.5,217.5 Z"/></g>
<g><path style="opacity:0.99" fill="#000000" d="M 1999.5,196.5 C 1999.5,197.5 1999.5,198.5 1999.5,199.5C 1970.27,221.369 1941.11,243.369 1912,265.5C 1893.9,241.543 1869.74,230.709 1839.5,233C 1802.16,238.001 1779,258.835 1770,295.5C 1763.84,324.377 1768.84,351.043 1785,375.5C 1810.1,403.07 1840.6,411.237 1876.5,400C 1890.88,393.973 1902.88,384.807 1912.5,372.5C 1941.52,394.524 1970.52,416.524 1999.5,438.5C 1999.5,439.5 1999.5,440.5 1999.5,441.5C 1965.49,482.178 1921.82,505.012 1868.5,510C 1816.01,515.211 1768.01,503.211 1724.5,474C 1682.92,441.694 1658.75,399.194 1652,346.5C 1644.54,286.631 1659.87,233.631 1698,187.5C 1729.41,154.379 1767.91,134.879 1813.5,129C 1865.98,121.096 1914.65,131.096 1959.5,159C 1974.62,169.618 1987.95,182.118 1999.5,196.5 Z"/></g>
<g><path style="opacity:0.991" fill="#000000" d="M 845.5,140.5 C 885.833,140.5 926.167,140.5 966.5,140.5C 991.097,213.291 1016.1,285.957 1041.5,358.5C 1066.69,286.251 1091.69,213.918 1116.5,141.5C 1156.83,140.167 1197.17,140.167 1237.5,141.5C 1197.03,259.575 1156.36,377.575 1115.5,495.5C 1065.84,496.5 1016.17,496.833 966.5,496.5C 926.167,377.833 885.833,259.167 845.5,140.5 Z"/></g>
<g><path style="opacity:0.998" fill="#fee700" d="M 759.5,264.5 C 766.123,300.51 766.123,336.51 759.5,372.5C 746.064,391.4 727.731,402.233 704.5,405C 670.672,408.167 644.505,395.667 626,367.5C 614.293,343.603 611.293,318.603 617,292.5C 625.942,259.556 647.109,239.723 680.5,233C 713.029,228.771 739.362,239.271 759.5,264.5 Z"/></g>
<g><path style="opacity:0.789" fill="#000000" d="M 1572.5,552.5 C 1575.57,552.183 1578.57,552.516 1581.5,553.5C 1577.5,557.833 1573.5,562.167 1569.5,566.5C 1566.83,567.833 1564.17,567.833 1561.5,566.5C 1565.19,561.815 1568.86,557.148 1572.5,552.5 Z"/></g>
<g><path style="opacity:0.82" fill="#000000" d="M 991.5,567.5 C 999.452,567.572 1001.12,570.739 996.5,577C 992.074,578.252 989.408,576.586 988.5,572C 988.957,570.06 989.957,568.56 991.5,567.5 Z"/></g>
<g><path style="opacity:0.874" fill="#000000" d="M 1015.5,567.5 C 1017.83,567.5 1020.17,567.5 1022.5,567.5C 1022.33,577.839 1022.5,588.172 1023,598.5C 1033.55,589.216 1045.05,588.05 1057.5,595C 1068.7,605.14 1071.53,617.307 1066,631.5C 1056.64,646.619 1043.8,650.452 1027.5,643C 1026,641.5 1024.5,640 1023,638.5C 1022.5,640.473 1022.34,642.473 1022.5,644.5C 1020.17,644.5 1017.83,644.5 1015.5,644.5C 1015.5,618.833 1015.5,593.167 1015.5,567.5 Z M 1035.5,597.5 C 1050.7,596.362 1059.37,603.362 1061.5,618.5C 1058.92,635.589 1049.25,642.089 1032.5,638C 1028.76,636.262 1025.59,633.762 1023,630.5C 1022.33,622.833 1022.33,615.167 1023,607.5C 1025.89,602.434 1030.05,599.101 1035.5,597.5 Z"/></g>
<g><path style="opacity:0.82" fill="#000000" d="M 1184.5,567.5 C 1188.81,566.649 1191.47,568.316 1192.5,572.5C 1189.95,578.244 1186.45,578.911 1182,574.5C 1181.16,571.519 1182,569.186 1184.5,567.5 Z"/></g>
<g><path style="opacity:0.828" fill="#000000" d="M 1435.5,567.5 C 1443.22,566.87 1445.22,569.87 1441.5,576.5C 1433.41,577.777 1431.41,574.777 1435.5,567.5 Z"/></g>
<g><path style="opacity:0.874" fill="#000000" d="M 1741.5,567.5 C 1743.83,567.5 1746.17,567.5 1748.5,567.5C 1748.5,593.167 1748.5,618.833 1748.5,644.5C 1746.17,644.5 1743.83,644.5 1741.5,644.5C 1741.66,642.801 1741.49,641.134 1741,639.5C 1730.97,647.427 1720.14,648.594 1708.5,643C 1700.12,637.078 1695.79,628.911 1695.5,618.5C 1699.3,593.929 1712.97,585.762 1736.5,594C 1738.09,595.046 1739.59,596.213 1741,597.5C 1741.5,587.506 1741.67,577.506 1741.5,567.5 Z M 1717.5,597.5 C 1727.12,595.895 1734.95,598.895 1741,606.5C 1741.67,614.5 1741.67,622.5 1741,630.5C 1734.13,639.387 1725.3,641.887 1714.5,638C 1704.16,630.982 1700.99,621.482 1705,609.5C 1707.74,603.921 1711.91,599.921 1717.5,597.5 Z"/></g>
<g><path style="opacity:0.828" fill="#000000" d="M 1767.5,567.5 C 1772.08,566.343 1774.75,568.01 1775.5,572.5C 1773.67,577.699 1770.51,578.699 1766,575.5C 1765.11,572.502 1765.61,569.836 1767.5,567.5 Z"/></g>
<g><path style="opacity:0.871" fill="#000000" d="M 734.5,570.5 C 749.331,568.921 761.331,573.921 770.5,585.5C 769.141,587.692 767.308,589.359 765,590.5C 749.299,573.618 733.299,573.284 717,589.5C 706.849,606.747 709.349,621.914 724.5,635C 740.261,642.851 753.761,640.018 765,626.5C 766.667,627.833 768.333,629.167 770,630.5C 770.315,631.908 769.982,633.241 769,634.5C 758.929,644.73 746.762,648.564 732.5,646C 717.444,642.611 707.944,633.445 704,618.5C 700.3,593.418 710.466,577.418 734.5,570.5 Z"/></g>
<g><path style="opacity:0.87" fill="#000000" d="M 1354.5,573.5 C 1357.29,572.523 1360.29,572.19 1363.5,572.5C 1371.5,593.664 1380,614.664 1389,635.5C 1397.66,614.867 1406.32,594.201 1415,573.5C 1417.79,572.217 1420.63,572.217 1423.5,573.5C 1413.54,597.085 1403.87,620.752 1394.5,644.5C 1390.89,644.789 1387.39,644.456 1384,643.5C 1374.24,620.025 1364.41,596.692 1354.5,573.5 Z"/></g>
<g><path style="opacity:0.888" fill="#000000" d="M 1546.5,572.5 C 1558.83,572.5 1571.17,572.5 1583.5,572.5C 1583.5,574.833 1583.5,577.167 1583.5,579.5C 1573.5,579.5 1563.5,579.5 1553.5,579.5C 1553.5,587.833 1553.5,596.167 1553.5,604.5C 1562.17,604.5 1570.83,604.5 1579.5,604.5C 1579.5,606.833 1579.5,609.167 1579.5,611.5C 1570.83,611.5 1562.17,611.5 1553.5,611.5C 1553.5,620.167 1553.5,628.833 1553.5,637.5C 1563.5,637.5 1573.5,637.5 1583.5,637.5C 1583.5,639.833 1583.5,642.167 1583.5,644.5C 1571.17,644.5 1558.83,644.5 1546.5,644.5C 1546.5,620.5 1546.5,596.5 1546.5,572.5 Z"/></g>
<g><path style="opacity:0.908" fill="#000000" d="M 913.5,579.5 C 915.833,579.5 918.167,579.5 920.5,579.5C 920.5,583.833 920.5,588.167 920.5,592.5C 926.833,592.5 933.167,592.5 939.5,592.5C 939.5,594.5 939.5,596.5 939.5,598.5C 933.167,598.5 926.833,598.5 920.5,598.5C 920.333,609.838 920.5,621.172 921,632.5C 923.012,637.005 926.512,639.338 931.5,639.5C 934.039,638.885 936.539,638.218 939,637.5C 940.686,644.343 938.02,647.01 931,645.5C 923.882,646.247 918.549,643.58 915,637.5C 913.557,624.574 913.057,611.574 913.5,598.5C 910.167,598.5 906.833,598.5 903.5,598.5C 903.5,596.5 903.5,594.5 903.5,592.5C 906.833,592.5 910.167,592.5 913.5,592.5C 913.5,588.167 913.5,583.833 913.5,579.5 Z"/></g>
<g><path style="opacity:0.859" fill="#000000" d="M 1144.5,579.5 C 1147.17,579.5 1149.83,579.5 1152.5,579.5C 1152.5,583.833 1152.5,588.167 1152.5,592.5C 1158.83,592.5 1165.17,592.5 1171.5,592.5C 1171.5,594.5 1171.5,596.5 1171.5,598.5C 1165.17,598.5 1158.83,598.5 1152.5,598.5C 1152.33,610.171 1152.5,621.838 1153,633.5C 1155.33,637.417 1158.83,639.417 1163.5,639.5C 1166.04,638.885 1168.54,638.218 1171,637.5C 1172.69,644.343 1170.02,647.01 1163,645.5C 1150.82,646.314 1144.82,640.647 1145,628.5C 1144.5,618.506 1144.33,608.506 1144.5,598.5C 1141.5,598.5 1138.5,598.5 1135.5,598.5C 1135.5,596.5 1135.5,594.5 1135.5,592.5C 1138.5,592.5 1141.5,592.5 1144.5,592.5C 1144.5,588.167 1144.5,583.833 1144.5,579.5 Z"/></g>
<g><path style="opacity:0.888" fill="#000000" d="M 1601.5,579.5 C 1603.83,579.5 1606.17,579.5 1608.5,579.5C 1608.5,583.833 1608.5,588.167 1608.5,592.5C 1615.17,592.5 1621.83,592.5 1628.5,592.5C 1628.5,594.5 1628.5,596.5 1628.5,598.5C 1621.83,598.5 1615.17,598.5 1608.5,598.5C 1608.06,610.243 1608.56,621.91 1610,633.5C 1612.33,637.417 1615.83,639.417 1620.5,639.5C 1622.83,638.833 1625.17,638.167 1627.5,637.5C 1628.47,639.743 1628.81,642.076 1628.5,644.5C 1623.2,645.509 1617.87,645.676 1612.5,645C 1606.14,643.298 1602.64,639.132 1602,632.5C 1601.5,621.172 1601.33,609.838 1601.5,598.5C 1598.5,598.5 1595.5,598.5 1592.5,598.5C 1592.5,596.5 1592.5,594.5 1592.5,592.5C 1595.5,592.5 1598.5,592.5 1601.5,592.5C 1601.5,588.167 1601.5,583.833 1601.5,579.5 Z"/></g>
<g><path style="opacity:0.895" fill="#000000" d="M 1912.5,579.5 C 1914.83,579.5 1917.17,579.5 1919.5,579.5C 1919.5,583.833 1919.5,588.167 1919.5,592.5C 1925.83,592.5 1932.17,592.5 1938.5,592.5C 1938.5,594.5 1938.5,596.5 1938.5,598.5C 1932.17,598.5 1925.83,598.5 1919.5,598.5C 1919.06,610.576 1919.56,622.576 1921,634.5C 1925.99,639.365 1931.66,640.365 1938,637.5C 1939.69,644.343 1937.02,647.01 1930,645.5C 1922.88,646.247 1917.55,643.58 1914,637.5C 1912.58,624.561 1912.08,611.561 1912.5,598.5C 1909.17,598.5 1905.83,598.5 1902.5,598.5C 1902.5,596.5 1902.5,594.5 1902.5,592.5C 1905.83,592.5 1909.17,592.5 1912.5,592.5C 1912.5,588.167 1912.5,583.833 1912.5,579.5 Z"/></g>
<g><path style="opacity:0.868" fill="#000000" d="M 801.5,590.5 C 821.606,589.278 832.939,598.611 835.5,618.5C 834.41,636.424 824.91,645.757 807,646.5C 794.381,646.192 785.714,640.192 781,628.5C 776.646,609.528 783.479,596.862 801.5,590.5 Z M 801.5,597.5 C 820.472,596.638 828.972,605.638 827,624.5C 821.726,637.719 812.226,642.219 798.5,638C 783.803,626.759 782.803,614.426 795.5,601C 797.727,600.059 799.727,598.892 801.5,597.5 Z"/></g>
<g><path style="opacity:0.876" fill="#000000" d="M 867.5,590.5 C 878.386,588.569 886.553,592.235 892,601.5C 893.43,615.774 893.93,630.108 893.5,644.5C 891.167,644.5 888.833,644.5 886.5,644.5C 886.667,632.162 886.5,619.829 886,607.5C 884.007,600.498 879.341,597.164 872,597.5C 864.635,597.523 859.302,600.857 856,607.5C 855.5,619.829 855.333,632.162 855.5,644.5C 853.167,644.5 850.833,644.5 848.5,644.5C 848.5,627.167 848.5,609.833 848.5,592.5C 850.833,592.5 853.167,592.5 855.5,592.5C 855.34,594.199 855.506,595.866 856,597.5C 859.514,594.5 863.347,592.167 867.5,590.5 Z"/></g>
<g><path style="opacity:0.87" fill="#000000" d="M 1225.5,590.5 C 1249.31,589.477 1260.48,600.811 1259,624.5C 1253.98,641.821 1242.48,648.988 1224.5,646C 1205.26,637.969 1199.43,624.136 1207,604.5C 1211.37,597.275 1217.54,592.608 1225.5,590.5 Z M 1226.5,597.5 C 1245.54,597.373 1253.71,606.706 1251,625.5C 1244.1,639.699 1233.6,643.199 1219.5,636C 1207.5,624.333 1207.5,612.667 1219.5,601C 1221.93,599.787 1224.26,598.621 1226.5,597.5 Z"/></g>
<g><path style="opacity:0.874" fill="#000000" d="M 1291.5,590.5 C 1306.74,588.182 1315.57,594.515 1318,609.5C 1318.5,621.162 1318.67,632.829 1318.5,644.5C 1316.17,644.5 1313.83,644.5 1311.5,644.5C 1311.92,631.772 1311.42,619.106 1310,606.5C 1305.28,597.578 1298.12,595.078 1288.5,599C 1285,601.167 1282.17,604 1280,607.5C 1279.5,619.829 1279.33,632.162 1279.5,644.5C 1277.17,644.5 1274.83,644.5 1272.5,644.5C 1272.5,627.167 1272.5,609.833 1272.5,592.5C 1274.83,592.5 1277.17,592.5 1279.5,592.5C 1279.34,594.527 1279.5,596.527 1280,598.5C 1283.15,594.689 1286.98,592.023 1291.5,590.5 Z"/></g>
<g><path style="opacity:0.867" fill="#000000" d="M 1475.5,590.5 C 1495.39,588.752 1504.73,597.752 1503.5,617.5C 1489.83,617.5 1476.17,617.5 1462.5,617.5C 1463.13,632.293 1470.79,639.793 1485.5,640C 1491.37,638.732 1496.37,635.899 1500.5,631.5C 1502.32,632.815 1503.98,634.315 1505.5,636C 1494.07,647.577 1481.07,649.577 1466.5,642C 1455.6,632.352 1452.43,620.519 1457,606.5C 1460.61,598.048 1466.78,592.715 1475.5,590.5 Z M 1478.5,596.5 C 1488.78,596.452 1494.78,601.452 1496.5,611.5C 1485.5,611.5 1474.5,611.5 1463.5,611.5C 1465.53,603.467 1470.53,598.467 1478.5,596.5 Z"/></g>
<g><path style="opacity:0.856" fill="#000000" d="M 1804.5,590.5 C 1814.9,588.683 1823.07,592.016 1829,600.5C 1830.43,615.108 1830.93,629.775 1830.5,644.5C 1828.17,644.5 1825.83,644.5 1823.5,644.5C 1823.66,642.801 1823.49,641.134 1823,639.5C 1814.65,646.141 1805.49,647.641 1795.5,644C 1788.19,638.56 1786.69,631.726 1791,623.5C 1792.56,621.641 1794.39,620.141 1796.5,619C 1805.33,616.307 1814.33,614.474 1823.5,613.5C 1823,598.588 1815.66,593.755 1801.5,599C 1799.02,600.643 1796.69,602.476 1794.5,604.5C 1788.32,602.323 1787.99,599.49 1793.5,596C 1796.99,593.588 1800.66,591.755 1804.5,590.5 Z M 1818.5,619.5 C 1820.17,619.5 1821.83,619.5 1823.5,619.5C 1824.31,634.841 1816.98,641.341 1801.5,639C 1796.19,636.56 1794.69,632.727 1797,627.5C 1798.73,625.383 1800.9,623.883 1803.5,623C 1808.65,621.875 1813.65,620.709 1818.5,619.5 Z"/></g>
<g><path style="opacity:0.876" fill="#000000" d="M 1866.5,590.5 C 1877.39,588.569 1885.55,592.235 1891,601.5C 1892.45,615.761 1892.95,630.094 1892.5,644.5C 1890.17,644.5 1887.83,644.5 1885.5,644.5C 1885.67,631.829 1885.5,619.162 1885,606.5C 1882.6,600.381 1878.1,597.381 1871.5,597.5C 1863.91,597.379 1858.41,600.712 1855,607.5C 1854.5,619.829 1854.33,632.162 1854.5,644.5C 1852.17,644.5 1849.83,644.5 1847.5,644.5C 1847.5,627.167 1847.5,609.833 1847.5,592.5C 1849.83,592.5 1852.17,592.5 1854.5,592.5C 1854.34,594.199 1854.51,595.866 1855,597.5C 1858.51,594.5 1862.35,592.167 1866.5,590.5 Z"/></g>
<g><path style="opacity:0.861" fill="#000000" d="M 1966.5,590.5 C 1985.33,588.504 1994.83,596.838 1995,615.5C 1981.41,617.472 1967.58,618.138 1953.5,617.5C 1954.71,634.547 1963.71,641.714 1980.5,639C 1984.83,637.501 1988.49,635.001 1991.5,631.5C 1993.17,632.833 1994.83,634.167 1996.5,635.5C 1987.8,646.231 1976.8,649.397 1963.5,645C 1951.76,639.856 1946.09,630.856 1946.5,618C 1946.49,603.803 1953.16,594.636 1966.5,590.5 Z M 1969.5,596.5 C 1979.78,596.452 1985.78,601.452 1987.5,611.5C 1976.48,611.832 1965.48,611.499 1954.5,610.5C 1956.99,603.006 1961.99,598.34 1969.5,596.5 Z"/></g>
<g><path style="opacity:0.877" fill="#000000" d="M 969.5,591.5 C 972.5,591.5 975.5,591.5 978.5,591.5C 978.5,593.833 978.5,596.167 978.5,598.5C 969.889,597.057 963.389,600.057 959,607.5C 958.5,619.829 958.333,632.162 958.5,644.5C 956.167,644.5 953.833,644.5 951.5,644.5C 951.5,627.167 951.5,609.833 951.5,592.5C 953.833,592.5 956.167,592.5 958.5,592.5C 958.338,594.527 958.505,596.527 959,598.5C 961.998,595.262 965.498,592.929 969.5,591.5 Z"/></g>
<g><path style="opacity:0.885" fill="#000000" d="M 990.5,592.5 C 992.833,592.5 995.167,592.5 997.5,592.5C 997.5,609.833 997.5,627.167 997.5,644.5C 995.167,644.5 992.833,644.5 990.5,644.5C 990.5,627.167 990.5,609.833 990.5,592.5 Z"/></g>
<g><path style="opacity:0.879" fill="#000000" d="M 1080.5,592.5 C 1082.83,592.5 1085.17,592.5 1087.5,592.5C 1087.08,605.228 1087.58,617.894 1089,630.5C 1091.54,636.77 1096.2,639.77 1103,639.5C 1111.24,639.598 1116.24,635.598 1118,627.5C 1118.5,615.838 1118.67,604.171 1118.5,592.5C 1120.83,592.5 1123.17,592.5 1125.5,592.5C 1125.67,604.505 1125.5,616.505 1125,628.5C 1121.06,643.066 1111.56,648.9 1096.5,646C 1089.43,643.928 1084.59,639.428 1082,632.5C 1080.6,619.218 1080.1,605.885 1080.5,592.5 Z"/></g>
<g><path style="opacity:0.885" fill="#000000" d="M 1183.5,592.5 C 1185.83,592.5 1188.17,592.5 1190.5,592.5C 1190.5,609.833 1190.5,627.167 1190.5,644.5C 1188.17,644.5 1185.83,644.5 1183.5,644.5C 1183.5,627.167 1183.5,609.833 1183.5,592.5 Z"/></g>
<g><path style="opacity:0.885" fill="#000000" d="M 1434.5,592.5 C 1436.83,592.5 1439.17,592.5 1441.5,592.5C 1441.5,609.833 1441.5,627.167 1441.5,644.5C 1439.17,644.5 1436.83,644.5 1434.5,644.5C 1434.5,627.167 1434.5,609.833 1434.5,592.5 Z"/></g>
<g><path style="opacity:0.871" fill="#000000" d="M 1638.5,592.5 C 1640.83,592.5 1643.17,592.5 1645.5,592.5C 1645.13,604.88 1645.63,617.214 1647,629.5C 1651.76,639.202 1659.26,642.035 1669.5,638C 1672.87,635.635 1675.04,632.468 1676,628.5C 1676.5,616.505 1676.67,604.505 1676.5,592.5C 1678.83,592.5 1681.17,592.5 1683.5,592.5C 1683.95,606.24 1683.45,619.907 1682,633.5C 1678.18,642.477 1671.34,646.81 1661.5,646.5C 1647.27,646.105 1639.77,638.772 1639,624.5C 1638.5,613.839 1638.33,603.172 1638.5,592.5 Z"/></g>
<g><path style="opacity:0.885" fill="#000000" d="M 1766.5,592.5 C 1768.83,592.5 1771.17,592.5 1773.5,592.5C 1773.5,609.833 1773.5,627.167 1773.5,644.5C 1771.17,644.5 1768.83,644.5 1766.5,644.5C 1766.5,627.167 1766.5,609.833 1766.5,592.5 Z"/></g>
<g><path style="opacity:0.873" fill="#000000" d="M 874.5,676.5 C 876.833,676.5 879.167,676.5 881.5,676.5C 881.5,702.167 881.5,727.833 881.5,753.5C 879.167,753.5 876.833,753.5 874.5,753.5C 874.662,751.473 874.495,749.473 874,747.5C 863.385,756.642 851.885,757.808 839.5,751C 827.824,739.697 825.324,726.531 832,711.5C 839.522,700.988 849.689,697.155 862.5,700C 867.239,701.119 871.072,703.619 874,707.5C 874.5,697.172 874.666,686.839 874.5,676.5 Z M 852.5,705.5 C 873.092,707.292 880.258,718.292 874,738.5C 862.596,751.402 850.929,751.735 839,739.5C 831.708,723.258 836.208,711.925 852.5,705.5 Z"/></g>
<g><path style="opacity:0.877" fill="#000000" d="M 1008.5,679.5 C 1020.24,677.644 1030.9,680.144 1040.5,687C 1042.89,689.05 1044.89,691.384 1046.5,694C 1045.57,696.554 1043.74,698.054 1041,698.5C 1027.52,684.362 1012.69,682.862 996.5,694C 984.968,707.324 983.801,721.491 993,736.5C 1009.42,752.632 1025.59,752.299 1041.5,735.5C 1044.1,736.899 1045.6,738.899 1046,741.5C 1031.68,756.36 1015.18,759.193 996.5,750C 982.286,739.725 976.786,725.892 980,708.5C 983.681,692.986 993.181,683.32 1008.5,679.5 Z"/></g>
<g><path style="opacity:0.893" fill="#000000" d="M 768.5,688.5 C 770.833,688.5 773.167,688.5 775.5,688.5C 775.5,692.833 775.5,697.167 775.5,701.5C 781.833,701.5 788.167,701.5 794.5,701.5C 794.5,703.5 794.5,705.5 794.5,707.5C 788.167,707.5 781.833,707.5 775.5,707.5C 775.333,718.838 775.5,730.172 776,741.5C 776.833,744.333 778.667,746.167 781.5,747C 785.871,747.629 790.204,747.463 794.5,746.5C 794.5,748.833 794.5,751.167 794.5,753.5C 787.687,755.095 781.02,754.595 774.5,752C 771.894,750.062 770.061,747.562 769,744.5C 768.5,732.171 768.333,719.838 768.5,707.5C 765.167,707.5 761.833,707.5 758.5,707.5C 758.5,705.5 758.5,703.5 758.5,701.5C 761.833,701.5 765.167,701.5 768.5,701.5C 768.5,697.167 768.5,692.833 768.5,688.5 Z"/></g>
<g><path style="opacity:0.857" fill="#000000" d="M 720.5,699.5 C 741.327,696.717 751.661,705.717 751.5,726.5C 737.5,726.5 723.5,726.5 709.5,726.5C 711.274,742.776 720.274,749.943 736.5,748C 740.884,746.271 744.717,743.771 748,740.5C 749.96,741.292 751.46,742.625 752.5,744.5C 743.237,755.149 731.903,757.983 718.5,753C 704.479,744.621 699.645,732.454 704,716.5C 707.045,708.29 712.545,702.623 720.5,699.5 Z M 723.5,705.5 C 734.709,703.933 741.709,708.6 744.5,719.5C 733.167,720.833 721.833,720.833 710.5,719.5C 712.849,712.824 717.182,708.157 723.5,705.5 Z"/></g>
<g><path style="opacity:0.863" fill="#000000" d="M 912.5,699.5 C 933.448,696.794 943.448,705.794 942.5,726.5C 928.833,726.5 915.167,726.5 901.5,726.5C 902.555,742.862 911.222,750.029 927.5,748C 931.972,746.264 935.972,743.764 939.5,740.5C 941.389,741.604 943.055,742.937 944.5,744.5C 935.201,754.998 923.867,757.831 910.5,753C 902.071,749.571 896.904,743.404 895,734.5C 891.872,718.087 897.706,706.421 912.5,699.5 Z M 915.5,705.5 C 927.05,704.253 933.717,709.253 935.5,720.5C 924.5,720.5 913.5,720.5 902.5,720.5C 903.836,712.787 908.169,707.787 915.5,705.5 Z"/></g>
<g><path style="opacity:0.865" fill="#000000" d="M 1071.5,699.5 C 1078.39,698.901 1085.06,699.735 1091.5,702C 1095.96,705.413 1098.46,709.913 1099,715.5C 1099.5,728.162 1099.67,740.829 1099.5,753.5C 1097.17,753.5 1094.83,753.5 1092.5,753.5C 1092.66,751.473 1092.5,749.473 1092,747.5C 1084.27,754.44 1075.44,756.274 1065.5,753C 1059.95,750.737 1057.28,746.57 1057.5,740.5C 1057.37,734.915 1059.71,730.748 1064.5,728C 1073.59,724.985 1082.92,723.152 1092.5,722.5C 1092.42,708.117 1085.42,702.951 1071.5,707C 1068.61,708.938 1065.94,711.105 1063.5,713.5C 1057.84,711.714 1057.18,708.881 1061.5,705C 1064.77,702.87 1068.1,701.037 1071.5,699.5 Z M 1091.5,727.5 C 1094.02,740.022 1088.69,747.022 1075.5,748.5C 1067.99,748.491 1064.49,744.824 1065,737.5C 1065.78,735.714 1066.95,734.214 1068.5,733C 1076.17,730.729 1083.84,728.895 1091.5,727.5 Z"/></g>
<g><path style="opacity:0.868" fill="#000000" d="M 1133.5,699.5 C 1143.54,697.399 1151.54,700.399 1157.5,708.5C 1164.25,700.196 1172.91,697.362 1183.5,700C 1189.49,702.659 1193.33,707.159 1195,713.5C 1195.5,726.829 1195.67,740.163 1195.5,753.5C 1193.17,753.5 1190.83,753.5 1188.5,753.5C 1188.67,740.829 1188.5,728.162 1188,715.5C 1185.95,709.299 1181.62,705.966 1175,705.5C 1168.3,706.345 1163.3,709.678 1160,715.5C 1159.5,728.162 1159.33,740.829 1159.5,753.5C 1157.17,753.5 1154.83,753.5 1152.5,753.5C 1152.67,741.162 1152.5,728.829 1152,716.5C 1147.84,706.223 1140.68,703.389 1130.5,708C 1127.96,710.205 1125.79,712.705 1124,715.5C 1123.5,728.162 1123.33,740.829 1123.5,753.5C 1121.17,753.5 1118.83,753.5 1116.5,753.5C 1116.5,736.167 1116.5,718.833 1116.5,701.5C 1118.83,701.5 1121.17,701.5 1123.5,701.5C 1123.34,702.873 1123.51,704.207 1124,705.5C 1126.84,702.837 1130.01,700.837 1133.5,699.5 Z"/></g>
<g><path style="opacity:0.875" fill="#000000" d="M 1219.5,778.5 C 1217.17,778.5 1214.83,778.5 1212.5,778.5C 1212.5,752.833 1212.5,727.167 1212.5,701.5C 1214.83,701.5 1217.17,701.5 1219.5,701.5C 1219.34,703.199 1219.51,704.866 1220,706.5C 1227.66,699.909 1236.49,697.743 1246.5,700C 1259.25,704.607 1265.59,713.774 1265.5,727.5C 1264.09,746.742 1253.76,755.909 1234.5,755C 1228.75,754.209 1223.92,751.709 1220,747.5C 1219.5,757.828 1219.33,768.161 1219.5,778.5 Z M 1235.5,705.5 C 1247.87,705.433 1255.37,711.433 1258,723.5C 1259.03,735.602 1253.87,743.769 1242.5,748C 1233.04,749.35 1225.54,746.183 1220,738.5C 1219.33,730.833 1219.33,723.167 1220,715.5C 1223.9,709.98 1229.07,706.647 1235.5,705.5 Z"/></g>
<g><path style="opacity:0.859" fill="#000000" d="M 1345.5,699.5 C 1354.96,697.453 1362.63,700.119 1368.5,707.5C 1367.46,709.375 1365.96,710.708 1364,711.5C 1361.51,709.681 1359.01,707.848 1356.5,706C 1348.03,703.96 1343.53,707.127 1343,715.5C 1343.78,717.286 1344.95,718.786 1346.5,720C 1352.96,723.064 1359.29,726.397 1365.5,730C 1369.29,736.384 1369.46,742.884 1366,749.5C 1356.95,756.896 1347.45,757.396 1337.5,751C 1335.77,749.611 1334.44,747.944 1333.5,746C 1334.98,744.522 1336.48,743.022 1338,741.5C 1343.58,748.602 1350.41,750.435 1358.5,747C 1363.95,742.048 1363.61,737.381 1357.5,733C 1352.5,730.667 1347.5,728.333 1342.5,726C 1332.55,715.863 1333.55,707.03 1345.5,699.5 Z"/></g>
<g><path style="opacity:0.878" fill="#000000" d="M 1277.5,701.5 C 1279.83,701.5 1282.17,701.5 1284.5,701.5C 1284.08,713.895 1284.58,726.228 1286,738.5C 1291.85,749.156 1300.01,751.323 1310.5,745C 1312.65,742.531 1314.15,739.698 1315,736.5C 1315.5,724.838 1315.67,713.171 1315.5,701.5C 1317.83,701.5 1320.17,701.5 1322.5,701.5C 1322.92,714.894 1322.42,728.227 1321,741.5C 1314.79,753.802 1304.96,757.968 1291.5,754C 1283.77,750.721 1279.27,744.888 1278,736.5C 1277.5,724.838 1277.33,713.171 1277.5,701.5 Z"/></g>
</svg>
